<svg width="40" height="40" viewBox="0 0 40 40" fill="none" xmlns="http://www.w3.org/2000/svg">
<g clip-path="url(#clip0_107_716)">
<circle cx="20" cy="20" r="20" fill="#748A00"/>
<path d="M20.0008 8C16.5722 8 13.7695 10.8027 13.7695 14.2313C13.7695 17.6599 16.5722 20.4626 20.0008 20.4626C23.4294 20.4626 26.2321 17.6599 26.2321 14.2313C26.2321 10.8027 23.4294 8 20.0008 8Z" fill="white"/>
<path d="M30.6948 25.4422C30.5315 25.034 30.3139 24.653 30.069 24.2993C28.8173 22.4489 26.8853 21.2244 24.7085 20.9251C24.4364 20.8979 24.137 20.9523 23.9193 21.1156C22.7765 21.9591 21.416 22.3945 20.001 22.3945C18.586 22.3945 17.2254 21.9591 16.0826 21.1156C15.8649 20.9523 15.5655 20.8707 15.2935 20.9251C13.1166 21.2244 11.1574 22.4489 9.93293 24.2993C9.68804 24.653 9.47033 25.0612 9.3071 25.4422C9.22548 25.6054 9.25267 25.7959 9.33429 25.9592C9.55199 26.3401 9.82408 26.7211 10.069 27.0476C10.4499 27.5647 10.8581 28.0272 11.3207 28.4626C11.7016 28.8435 12.137 29.1973 12.5724 29.551C14.722 31.1565 17.3071 32 19.9738 32C22.6404 32 25.2255 31.1564 27.3751 29.551C27.8105 29.2245 28.2458 28.8435 28.6268 28.4626C29.0622 28.0272 29.4976 27.5646 29.8786 27.0476C30.1506 26.6939 30.3956 26.3401 30.6132 25.9592C30.7492 25.7959 30.7764 25.6054 30.6948 25.4422Z" fill="white"/>
</g>
<defs>
<clipPath id="clip0_107_716">
<rect width="40" height="40" fill="white"/>
</clipPath>
</defs>
</svg>
