<svg width="40" height="40" viewBox="0 0 40 40" fill="none" xmlns="http://www.w3.org/2000/svg">
<g clip-path="url(#clip0_107_657)">
<circle cx="20" cy="20" r="20" fill="#748A00"/>
<path d="M32.3183 22.4606L30.8436 21.6149C30.8834 21.2485 30.9043 20.8766 30.9043 20.5C30.9043 20.1234 30.8834 19.7515 30.8436 19.3851L32.3183 18.5394C32.6334 18.3587 32.8588 18.0668 32.953 17.7175C33.0472 17.3683 32.9988 17.0036 32.8168 16.6905L29.9799 11.8096C29.7372 11.3919 29.2845 11.1325 28.7985 11.1325C28.5606 11.1325 28.3256 11.1953 28.1185 11.314L26.6397 12.1622C26.0385 11.7243 25.3888 11.349 24.6997 11.0458V9.35354C24.6997 8.6072 24.0885 8 23.3372 8H17.663C16.9116 8 16.3003 8.6072 16.3003 9.35354V11.0458C15.6113 11.349 14.9615 11.7243 14.3604 12.1623L12.8815 11.3142C12.6746 11.1954 12.4395 11.1326 12.2016 11.1326C11.7156 11.1326 11.2629 11.3919 11.0202 11.8096L8.18317 16.6905C8.00119 17.0035 7.95283 17.3683 8.04697 17.7175C8.14128 18.0668 8.36662 18.3586 8.68171 18.5394L10.1564 19.3851C10.1166 19.7515 10.0957 20.1234 10.0957 20.5C10.0957 20.8767 10.1166 21.2486 10.1564 21.6149L8.68171 22.4606C8.36662 22.6413 8.14128 22.9331 8.04697 23.2825C7.95283 23.6317 8.00119 23.9965 8.18317 24.3095L11.0201 29.1904C11.2628 29.6081 11.7155 29.8675 12.2015 29.8675C12.4394 29.8675 12.6744 29.8048 12.8815 29.686L14.3603 28.8378C14.9615 29.2757 15.6112 29.651 16.3003 29.9542V31.6465C16.3003 32.0081 16.442 32.3478 16.6995 32.6035C16.9568 32.8591 17.299 33 17.6629 33H23.3371C24.0884 33 24.6997 32.3929 24.6997 31.6465V29.9542C25.3887 29.651 26.0385 29.2757 26.6396 28.8378L28.1185 29.6859C28.3255 29.8047 28.5606 29.8674 28.7985 29.8674C29.2845 29.8674 29.7372 29.6081 29.9799 29.1904L32.8168 24.3094C32.9988 23.9964 33.0472 23.6316 32.953 23.2824C32.8588 22.9331 32.6335 22.6413 32.3183 22.4606ZM20.5001 25.2686C17.8487 25.2686 15.6993 23.1336 15.6993 20.5C15.6993 17.8665 17.8488 15.7314 20.5001 15.7314C23.1514 15.7314 25.3009 17.8665 25.3009 20.5C25.3009 23.1336 23.1514 25.2686 20.5001 25.2686Z" fill="white"/>
</g>
<defs>
<clipPath id="clip0_107_657">
<rect width="40" height="40" fill="white"/>
</clipPath>
</defs>
</svg>
