<svg width="40" height="40" viewBox="0 0 40 40" fill="none" xmlns="http://www.w3.org/2000/svg">
<g clip-path="url(#clip0_107_694)">
<circle cx="20" cy="20" r="20" fill="#748A00"/>
<g clip-path="url(#clip1_107_694)">
<path d="M13.9997 8C13.5263 8 13.1426 8.38376 13.1426 8.85716V10.5714H14.8569V8.85716C14.8569 8.38376 14.4731 8 13.9997 8Z" fill="white"/>
<path d="M26.0017 8C25.5283 8 25.1445 8.38376 25.1445 8.85716V10.5714H26.8588V8.85716C26.8588 8.38376 26.4751 8 26.0017 8Z" fill="white"/>
<path d="M29.4286 10.5715H26.8571V14.0001C26.8571 14.4735 26.4734 14.8573 26 14.8573C25.5266 14.8573 25.1428 14.4735 25.1428 14.0001V10.5715H14.8571V14.0001C14.8571 14.4735 14.4734 14.8573 14 14.8573C13.5266 14.8573 13.1428 14.4735 13.1428 14.0001V10.5715H10.5714C9.15127 10.5715 8 11.7228 8 13.143V29.4287C8 30.8488 9.15127 32.0001 10.5714 32.0001H29.4286C30.8487 32.0001 32 30.8488 32 29.4287V13.143C32 11.7228 30.8487 10.5715 29.4286 10.5715ZM30.2857 29.4287C30.2857 29.9021 29.9019 30.2858 29.4285 30.2858H10.5714C10.098 30.2858 9.71427 29.9021 9.71427 29.4287V18.2858H30.2857V29.4287Z" fill="white"/>
</g>
</g>
<defs>
<clipPath id="clip0_107_694">
<rect width="40" height="40" fill="white"/>
</clipPath>
<clipPath id="clip1_107_694">
<rect width="24" height="24" fill="white" transform="translate(8 8)"/>
</clipPath>
</defs>
</svg>
