<svg id="Слой_1" data-name="Слой 1" xmlns="http://www.w3.org/2000/svg" viewBox="0 0 200 45"><defs><style>.cls-1{fill:#7a8918;}</style></defs><path class="cls-1" d="M17.78,34.5a2.44,2.44,0,0,1-.72,1.78,2.38,2.38,0,0,1-1.75.72H2.47a2.36,2.36,0,0,1-1.75-.72A2.44,2.44,0,0,1,0,34.5v-20a2.44,2.44,0,0,1,.72-1.78A2.36,2.36,0,0,1,2.47,12H14.32a.44.44,0,0,0,.49-.5V2h3ZM3.46,15a.44.44,0,0,0-.5.5v18a.44.44,0,0,0,.5.5H14.32a.44.44,0,0,0,.49-.5v-18a.44.44,0,0,0-.49-.5Z" transform="translate(0 -2)"/><path class="cls-1" d="M40,19.5H37v-4a.44.44,0,0,0-.5-.5H31.11a.44.44,0,0,0-.49.5v18a.44.44,0,0,0,.49.5h9.38v3H20.25V34h6.91a.44.44,0,0,0,.49-.5v-19a2.44,2.44,0,0,1,.72-1.78A2.38,2.38,0,0,1,30.12,12h7.41a2.36,2.36,0,0,1,1.75.72A2.44,2.44,0,0,1,40,14.5Z" transform="translate(0 -2)"/><path class="cls-1" d="M55.8,37h-3V32h3Z" transform="translate(0 -2)"/><path class="cls-1" d="M85.93,19.5H83v-4a.44.44,0,0,0-.49-.5H71.6a.44.44,0,0,0-.49.5V37h-3V14.5a2.48,2.48,0,0,1,.71-1.78A2.4,2.4,0,0,1,70.62,12H83.46a2.38,2.38,0,0,1,1.75.72,2.44,2.44,0,0,1,.72,1.78Z" transform="translate(0 -2)"/><path class="cls-1" d="M108.64,34.5a2.48,2.48,0,0,1-.71,1.78,2.4,2.4,0,0,1-1.76.72H93.33a2.38,2.38,0,0,1-1.75-.72,2.44,2.44,0,0,1-.72-1.78v-8a2.09,2.09,0,0,1,.72-1.67A3.62,3.62,0,0,1,93.33,24l11.86-2c.32-.07.49-.23.49-.5v-6a.44.44,0,0,0-.49-.5H94.32a.44.44,0,0,0-.49.5v4h-3v-5a2.44,2.44,0,0,1,.72-1.78A2.38,2.38,0,0,1,93.33,12h12.84a2.4,2.4,0,0,1,1.76.72,2.48,2.48,0,0,1,.71,1.78ZM94.32,26.85c-.33.07-.49.23-.49.5V33.5a.44.44,0,0,0,.49.5h10.87a.44.44,0,0,0,.49-.5v-8a.62.62,0,0,0-.12-.4.37.37,0,0,0-.37-.1Z" transform="translate(0 -2)"/><path class="cls-1" d="M131.36,44.5a2.41,2.41,0,0,1-.72,1.77,2.35,2.35,0,0,1-1.75.73H113.58V44H127.9a.44.44,0,0,0,.49-.5v-6a.44.44,0,0,0-.49-.5H116.05a2.36,2.36,0,0,1-1.75-.72,2.44,2.44,0,0,1-.72-1.78v-20a2.44,2.44,0,0,1,.72-1.78,2.36,2.36,0,0,1,1.75-.72h12.84a2.38,2.38,0,0,1,1.75.72,2.44,2.44,0,0,1,.72,1.78ZM117,15a.44.44,0,0,0-.5.5v18a.44.44,0,0,0,.5.5H127.9a.44.44,0,0,0,.49-.5v-18a.44.44,0,0,0-.49-.5Z" transform="translate(0 -2)"/><path class="cls-1" d="M156.4,14.9a2.4,2.4,0,0,1-.6,1.6l-6.61,8,6.61,8a2.4,2.4,0,0,1,.6,1.6V37h-2.72V34.75a.63.63,0,0,0-.05-.22,6.46,6.46,0,0,0-.62-.86q-.57-.72-1.92-2.37c-.91-1.1-2.23-2.7-4-4.8l-.44-.4V37h-3V26.1l-.44.4c-1.75,2.1-3.07,3.7-4,4.8s-1.54,1.89-1.92,2.37a6.46,6.46,0,0,0-.62.86.63.63,0,0,0-.05.22V37H134V34.1a2.4,2.4,0,0,1,.6-1.6l6.61-8-6.61-8a2.4,2.4,0,0,1-.6-1.6V12h2.72v2.25a.63.63,0,0,0,.05.22,6.46,6.46,0,0,0,.62.86q.57.72,1.92,2.37c.91,1.1,2.23,2.7,4,4.8a.91.91,0,0,0,.44.4V12h3V22.9a.91.91,0,0,0,.44-.4c1.75-2.1,3.07-3.7,4-4.8s1.54-1.89,1.92-2.37a6.46,6.46,0,0,0,.62-.86.63.63,0,0,0,.05-.22V12h2.72Z" transform="translate(0 -2)"/><path class="cls-1" d="M176.79,22.5a2.09,2.09,0,0,1-.72,1.67,3.57,3.57,0,0,1-1.75.83l-11.85,2c-.33.07-.49.23-.49.5v6a.44.44,0,0,0,.49.5h14.32v3H161.48a2.36,2.36,0,0,1-1.75-.72A2.44,2.44,0,0,1,159,34.5v-20a2.44,2.44,0,0,1,.72-1.78,2.36,2.36,0,0,1,1.75-.72h12.84a2.36,2.36,0,0,1,1.75.72,2.44,2.44,0,0,1,.72,1.78ZM162.47,15a.44.44,0,0,0-.49.5v8a.62.62,0,0,0,.12.4.35.35,0,0,0,.37.1l10.86-1.85c.33-.07.5-.23.5-.5V15.5a.44.44,0,0,0-.5-.5Z" transform="translate(0 -2)"/><path class="cls-1" d="M200,15h-7.41a.44.44,0,0,0-.49.5V37h-3V15.5a.44.44,0,0,0-.5-.5h-7.41V12H200Z" transform="translate(0 -2)"/></svg>