<svg width="24" height="24" viewBox="0 0 24 24" fill="none" xmlns="http://www.w3.org/2000/svg">
<g clip-path="url(#clip0_901_269)">
<path fill-rule="evenodd" clip-rule="evenodd" d="M11.3009 0.0397341C9.88749 0.125707 8.43853 0.506789 7.17076 1.12594C4.28312 2.53623 2.08383 5.0633 1.0723 8.13336C-0.577949 13.1422 1.14167 18.6766 5.31508 21.7882C7.4288 23.3641 10.0295 24.1441 12.6571 23.9903C15.014 23.8523 17.2397 22.9941 19.1091 21.5025C19.5669 21.1372 20.5837 20.1206 20.9331 19.6789C22.4122 17.8089 23.2849 15.6567 23.5492 13.2269C23.612 12.6505 23.6013 11.4016 23.5278 10.7081C23.3637 9.16076 22.9578 7.79732 22.2433 6.39402C20.7491 3.45936 18.1044 1.27688 15.0053 0.421186C14.2829 0.221707 13.4452 0.0861309 12.6304 0.0367336C12.2495 0.0136788 11.9194 -0.00267714 11.8968 0.000363956C11.8742 0.00344615 11.606 0.0211588 11.3009 0.0397341ZM67.6023 3.8178C65.2312 4.07514 63.6009 5.22867 63.0241 7.0569C62.8318 7.6666 62.7824 8.07291 62.8059 8.85016C62.8305 9.66447 62.927 10.1162 63.2013 10.7015C63.4195 11.1671 63.6581 11.4954 64.0455 11.8635C64.8364 12.6147 65.8667 13.0555 67.5612 13.3675C67.8663 13.4237 68.3656 13.516 68.6708 13.5727C70.4121 13.8959 71.0644 14.3262 71.2221 15.2558C71.3907 16.2494 70.804 17.0266 69.6982 17.2742C69.2138 17.3827 68.3843 17.367 67.8867 17.2399C67.0619 17.0291 66.4721 16.5969 66.084 15.9187C65.972 15.7229 65.7861 15.2256 65.7344 14.9837L65.7103 14.8707H64.0243H62.3383L62.3589 15.0043C62.3702 15.0777 62.3903 15.2303 62.4036 15.3433C62.6484 17.431 63.8661 19.0166 65.7825 19.7432C66.1231 19.8724 66.9246 20.0668 67.3968 20.1349C67.858 20.2015 69.2476 20.2018 69.7393 20.1355C70.9083 19.978 71.8832 19.6386 72.6711 19.1148C73.7301 18.4108 74.3983 17.307 74.5922 15.9411C74.65 15.534 74.6182 14.6284 74.5309 14.1926C74.2506 12.7953 73.3625 11.8004 71.8661 11.2072C71.2757 10.9732 70.494 10.7827 69.2722 10.575C67.7852 10.3222 67.3735 10.2078 66.9305 9.92449C66.4567 9.6214 66.2136 9.19623 66.1751 8.60358C66.1266 7.8563 66.4716 7.22617 67.0969 6.91997C67.5303 6.70779 67.9204 6.63928 68.5657 6.66201C69.4812 6.69431 69.9967 6.90258 70.5654 7.46995C70.9017 7.80546 71.1285 8.19965 71.2245 8.61554L71.2739 8.82961H72.9724C74.2071 8.82961 74.6708 8.81695 74.6708 8.78317C74.6708 8.65775 74.4434 7.74645 74.3346 7.4356C73.6647 5.52254 72.1001 4.27832 69.8831 3.89572C69.3149 3.79766 68.1533 3.75797 67.6023 3.8178ZM12.9816 4.04313C15.4277 4.38435 17.4118 6.04651 18.1554 8.37756C18.7096 10.1147 18.5638 12.2785 17.7719 14.0691C17.6807 14.2751 17.6697 14.2844 17.4833 14.3099C17.3767 14.3245 17.1994 14.3365 17.0894 14.3365C16.8104 14.3365 16.1476 14.4415 15.7804 14.544C14.6585 14.8569 13.8599 15.4461 13.3398 16.3445C12.9452 17.0263 12.6796 17.9914 12.575 19.1241C12.552 19.3728 12.5214 19.701 12.507 19.8536L12.4809 20.131H12.0434H11.606L11.5367 19.4837C11.4482 18.6572 11.3202 17.9059 11.1919 17.4608C10.7664 15.9842 9.93611 15.075 8.59691 14.6192C8.19343 14.4819 7.42313 14.3377 7.07423 14.3341C6.9465 14.3328 6.76983 14.3189 6.6816 14.3032C6.52387 14.2752 6.5182 14.2678 6.3435 13.8638C6.09101 13.2799 5.85639 12.5446 5.72591 11.9287C5.62231 11.4394 5.61339 11.3229 5.61134 10.4324C5.60957 9.65814 5.62342 9.40138 5.68116 9.13783C6.11349 7.16473 7.38442 5.50249 9.10227 4.66331C10.3054 4.0756 11.6608 3.85894 12.9816 4.04313ZM32.1302 4.02558C30.1168 4.18064 28.3771 5.15412 27.4005 6.67208C26.8056 7.59677 26.4492 8.77265 26.4165 9.91865L26.4036 10.3707L28.0515 10.3814L29.6994 10.3922L29.7248 10.0116C29.8087 8.75457 30.4776 7.71632 31.487 7.27647C32.2703 6.93513 33.4453 7.01617 34.1091 7.45729C34.4376 7.6756 34.5891 7.82753 34.8063 8.15662C35.2361 8.80771 35.3571 9.7684 35.0935 10.4371C34.8215 11.1272 34.1423 11.729 32.9743 12.3147C31.6181 12.9947 28.7876 14.2014 27.0098 14.8576L26.5064 15.0433V17.3817V19.72H32.7324H38.9584V18.1378V16.5556L34.7153 16.5535L30.4721 16.5514L31.0475 16.354C32.5839 15.8266 34.8326 14.8081 35.7848 14.2081C37.1547 13.3451 37.9588 12.4094 38.3587 11.2131C38.5822 10.5445 38.6423 10.0876 38.6154 9.26112C38.5826 8.24888 38.4325 7.61251 38.0436 6.83646C37.8074 6.36501 37.5922 6.06439 37.1989 5.65643C36.2729 4.6959 34.9422 4.1296 33.3565 4.02135C32.7173 3.97767 32.7541 3.97754 32.1302 4.02558ZM47.1776 4.02694C46.2303 4.1051 45.2212 4.36758 44.4333 4.74078C42.058 5.86586 40.6156 7.95903 40.2282 10.8433C40.1565 11.3774 40.1692 12.688 40.2521 13.2942C40.4364 14.6433 40.9045 15.8715 41.6204 16.8844C41.9533 17.3553 42.7196 18.1395 43.1708 18.4709C44.0916 19.1473 45.203 19.6254 46.3762 19.8499C47.0203 19.9731 48.4131 20.0026 49.0704 19.9069C50.7641 19.6603 52.0723 19.0265 53.1802 17.9157C53.7628 17.3315 54.1199 16.8318 54.4468 16.1435C54.9561 15.0707 55.1498 14.0555 55.1501 12.4563L55.1502 11.7063H51.3488H47.5475V13.021V14.3357L49.6439 14.3464L51.7404 14.357L51.6022 14.6447C51.3354 15.2003 50.871 15.7315 50.3315 16.0983C49.5539 16.6269 48.335 16.8854 47.2804 16.745C45.5735 16.518 44.4039 15.5469 43.8101 13.8639C43.4592 12.8695 43.4198 11.4434 43.7137 10.3707C43.8206 9.98062 44.0438 9.45464 44.2525 9.10084C44.4784 8.7182 44.9914 8.15847 45.3527 7.90064C46.1467 7.33405 47.2694 7.06697 48.3826 7.17982C49.9071 7.33438 50.9434 8.03256 51.5409 9.3076L51.7021 9.65153H53.4289C55.0541 9.65153 55.1545 9.64729 55.1347 9.57961C55.1231 9.54008 55.0769 9.3505 55.0321 9.15838C54.4414 6.63016 52.5173 4.8078 49.7872 4.19083C49.0609 4.02669 47.9932 3.95962 47.1776 4.02694ZM57.2461 12.0145V19.72H58.8694H60.4927V12.0145V4.30906H58.8694H57.2461V12.0145Z" fill="#29B24A"/>
</g>
<defs>
<clipPath id="clip0_901_269">
<rect width="24" height="24" fill="white"/>
</clipPath>
</defs>
</svg>
