<svg width="40" height="40" viewBox="0 0 40 40" fill="none" xmlns="http://www.w3.org/2000/svg">
<circle cx="20" cy="20" r="20" fill="#88BF56"/>
<path d="M20 18.75C18.2769 18.75 16.875 17.3481 16.875 15.625C16.875 13.9019 18.2769 12.5 20 12.5C21.7231 12.5 23.125 13.9019 23.125 15.625C23.125 16.3153 23.6846 16.875 24.375 16.875C25.0654 16.875 25.625 16.3153 25.625 15.625C25.625 12.953 23.7517 10.7119 21.25 10.1417V8.75C21.25 8.05969 20.6904 7.5 20 7.5C19.3096 7.5 18.75 8.05969 18.75 8.75V10.1417C16.2483 10.7119 14.375 12.953 14.375 15.625C14.375 18.7266 16.8984 21.25 20 21.25C21.7231 21.25 23.125 22.6519 23.125 24.375C23.125 26.0981 21.7231 27.5 20 27.5C18.2769 27.5 16.875 26.0981 16.875 24.375C16.875 23.6847 16.3154 23.125 15.625 23.125C14.9346 23.125 14.375 23.6847 14.375 24.375C14.375 27.047 16.2483 29.2881 18.75 29.8583V31.25C18.75 31.9403 19.3096 32.5 20 32.5C20.6904 32.5 21.25 31.9403 21.25 31.25V29.8583C23.7517 29.2881 25.625 27.047 25.625 24.375C25.625 21.2734 23.1016 18.75 20 18.75Z" fill="white"/>
</svg>
