<svg width="40" height="40" viewBox="0 0 40 40" fill="none" xmlns="http://www.w3.org/2000/svg">
<g clip-path="url(#clip0_36_54)">
<circle cx="20" cy="20" r="20" fill="#88BF56"/>
<path d="M30.074 14.1776C30.0453 13.5462 30.0453 12.9435 30.0453 12.3408C30.0453 11.8529 29.6722 11.4798 29.1843 11.4798C25.5969 11.4798 22.8704 10.4466 20.6031 8.23677C20.2587 7.92108 19.7421 7.92108 19.3977 8.23677C17.1305 10.4466 14.404 11.4798 10.8166 11.4798C10.3287 11.4798 9.95559 11.8529 9.95559 12.3408C9.95559 12.9435 9.95559 13.5462 9.92689 14.1776C9.8121 20.2045 9.6399 28.47 19.7134 31.9426L20.0004 32L20.2874 31.9426C30.3323 28.47 30.1888 20.2332 30.074 14.1776ZM19.3116 22.5291C19.1395 22.6726 18.9386 22.7587 18.709 22.7587H18.6803C18.4507 22.7587 18.2211 22.6439 18.0776 22.4717L15.4085 19.5157L16.7 18.3677L18.7951 20.6924L23.4444 16.2726L24.6211 17.5354L19.3116 22.5291Z" fill="white"/>
</g>
<defs>
<clipPath id="clip0_36_54">
<rect width="40" height="40" fill="white"/>
</clipPath>
</defs>
</svg>
