<svg width="30" height="30" viewBox="0 0 30 30" fill="none" xmlns="http://www.w3.org/2000/svg">
<g clip-path="url(#clip0_51_692)">
<path d="M14.9936 21.2285C13.5598 21.2285 12.3933 22.3912 12.3933 23.8196C12.3933 25.2485 13.5598 26.4116 14.9936 26.4116C16.4279 26.4116 17.5944 25.2485 17.5944 23.8196C17.5944 22.3912 16.4277 21.2285 14.9936 21.2285Z" fill="#88BF56"/>
<path d="M21.338 17.6979C19.645 16.006 17.3916 15.0737 14.9936 15.0737C12.6048 15.0737 10.3575 15.9998 8.66503 17.6811C7.98147 18.3614 7.98028 19.4697 8.66219 20.1511C8.99344 20.4828 9.43448 20.665 9.90391 20.665C10.3712 20.665 10.8106 20.4838 11.1414 20.1549C12.1713 19.1313 13.5394 18.5675 14.9936 18.5675C16.4532 18.5675 17.8251 19.1349 18.8557 20.1646C19.187 20.4954 19.6278 20.678 20.0967 20.678C20.5645 20.678 21.0037 20.4968 21.3347 20.1679C22.0192 19.4876 22.0204 18.3798 21.338 17.6979Z" fill="#88BF56"/>
<path d="M29.4879 9.57496C25.6175 5.71406 20.4696 3.58838 14.9936 3.58838C9.52487 3.58838 4.38221 5.70909 0.512965 9.56083C-0.170594 10.2411 -0.171067 11.3493 0.512019 12.0308C0.843033 12.3608 1.28336 12.5423 1.75184 12.5423C2.22009 12.5423 2.65994 12.3615 2.99096 12.0317C6.19817 8.83941 10.4607 7.08094 14.9936 7.08094C19.5331 7.08094 23.7999 8.84296 27.0078 12.0438C27.3388 12.3741 27.7799 12.5563 28.2481 12.5563C28.7161 12.5563 29.156 12.3746 29.4867 12.0452C30.1705 11.3644 30.1712 10.2557 29.4879 9.57496Z" fill="#88BF56"/>
<path d="M25.3097 13.7383C22.5546 10.9897 18.891 9.47607 14.9936 9.47607C11.1033 9.47607 7.4451 10.9849 4.69241 13.7239C4.36092 14.0535 4.1785 14.4919 4.17779 14.9588C4.17779 15.4251 4.3595 15.864 4.69052 16.1941C5.02153 16.5244 5.46209 16.7066 5.93058 16.7066C6.39835 16.7066 6.8382 16.5249 7.16969 16.196C9.26083 14.1155 12.0395 12.9694 14.9936 12.9694C17.9538 12.9694 20.7363 14.1195 22.8288 16.2071C23.1603 16.5379 23.6007 16.7201 24.0694 16.7201C24.5374 16.7201 24.9775 16.5383 25.308 16.209C25.639 15.8794 25.8219 15.441 25.8222 14.9741C25.8226 14.5073 25.6405 14.0689 25.3097 13.7383Z" fill="#88BF56"/>
</g>
<defs>
<clipPath id="clip0_51_692">
<rect width="30" height="30" fill="white"/>
</clipPath>
</defs>
</svg>
